<?xml version="1.0" encoding="utf-8"?>
<svg viewBox="0 0 234 333" width="234px" height="333px" xmlns="http://www.w3.org/2000/svg">
  <g id="layer1" transform="matrix(1, 0, 0, 1, 0, -719.3621826171876)">
    <g id="g908">
      <rect rx="8.9191856" ry="8.9457436" y="719.74011" x="0.37795275" height="332.24411" width="233.24409" id="rect4266" style="fill:#ffffff;fill-opacity:1;stroke:#808080;stroke-width:0.75590551;stroke-linecap:butt;stroke-linejoin:miter;stroke-miterlimit:4;stroke-dasharray:none;stroke-opacity:1"/>
      <g transform="matrix(0.07348588,0,0,0.07370838,-248.01731,933.60062)" id="g4233" style="fill:none;stroke:#000000;stroke-width:3.18132639;stroke-opacity:1"/>
      <g clip-path="none" style="fill:none;stroke:#000000;stroke-width:3.18132639;stroke-opacity:1" id="g4211" transform="matrix(0.07348588,0,0,0.07370838,-248.01728,933.60062)"/>
      <g transform="matrix(0.07348588,0,0,0.07370838,-248.01731,933.60062)" id="g4227" style="fill:none;stroke:#000000;stroke-width:3.18132639;stroke-opacity:1"/>
      <path id="path4884-1" d="M 117,814.07624 145.24371,785.73971 117,757.40317 88.756294,785.73971 Z" style="fill:#ff0000;fill-opacity:1;stroke:none;stroke-width:1"/>
      <path id="path4884-1-4" d="M 117,1014.3212 145.24371,985.98462 117,957.64809 88.756294,985.98462 Z" style="fill:#ff0000;fill-opacity:1;stroke:none;stroke-width:1"/>
      <path id="path4884-1-4-5-3" d="m 17.205569,780.7021 9.414569,-9.44551 -9.414569,-9.44552 -9.4145688,9.44552 z" style="fill:#ff0000;fill-opacity:1;stroke:none;stroke-width:1"/>
      <path id="path4884-1-4-5-3-5" d="m 216.79443,991.02224 9.41457,9.44556 -9.41457,9.4455 -9.41457,-9.4455 z" style="fill:#ff0000;fill-opacity:1;stroke:none;stroke-width:1"/>
      <g id="text3755-0" style="font-style:normal;font-variant:normal;font-weight:bold;font-stretch:normal;font-size:3.77201176px;line-height:0%;font-family:'Levenim MT';-inkscape-font-specification:'Sans Bold';letter-spacing:0px;word-spacing:0px;fill:#ff0000;fill-opacity:1;stroke:none;stroke-width:1" transform="scale(0.98105485,1.019311)" aria-label="2">
        <path id="path890" style="font-size:39.34609222px;line-height:1.25;stroke-width:1" d="m 26.999715,735.55243 -0.710843,5.64831 H 7.9414512 q 0.4226631,-4.86062 3.9192398,-8.58774 l 6.224675,-5.3025 q 3.246821,-2.80495 3.246821,-5.62911 0,-1.88277 -1.07587,-2.99706 -1.056658,-1.13351 -2.920218,-1.13351 -2.151739,0 -3.208397,1.15272 -0.691631,0.76848 -1.056658,2.36307 -0.365027,1.69065 -0.576359,1.95962 -0.307391,0.0961 -0.710842,0.0961 H 9.3631362 q -0.4226631,0 -0.7300545,-0.17291 -0.1344837,-0.40345 -0.1344837,-0.90296 0,-4.0153 2.632038,-6.37837 2.516767,-2.26701 6.551278,-2.26701 3.746332,0 6.128615,1.99804 2.535979,2.11332 2.535979,5.80202 0,3.63106 -2.804946,6.64733 -0.97981,1.07587 -5.571468,4.59166 -3.342881,2.59362 -4.111359,4.66851 h 8.952773 l 0.153695,-1.72908 q 0.211332,-0.92217 1.133506,-0.92217 h 1.921196 q 1.114293,0 0.97981,1.09508 z"/>
      </g>
      <g id="text3755-2-2" style="font-style:normal;font-variant:normal;font-weight:bold;font-stretch:normal;font-size:3.77201176px;line-height:0%;font-family:'Levenim MT';-inkscape-font-specification:'Sans Bold';letter-spacing:0px;word-spacing:0px;fill:#ff0000;fill-opacity:1;stroke:none;stroke-width:1" transform="scale(-0.98105494,-1.0193109)" aria-label="2">
        <path id="path893" style="font-size:39.34609222px;line-height:1.25;stroke-width:1" d="m -211.51903,-1002.6064 -0.71084,5.64833 h -18.34742 q 0.42266,-4.86063 3.91924,-8.58773 l 6.22467,-5.3025 q 3.24682,-2.805 3.24682,-5.6291 0,-1.8828 -1.07587,-2.9971 -1.05665,-1.1335 -2.92021,-1.1335 -2.15174,0 -3.2084,1.1527 -0.69163,0.7685 -1.05666,2.3631 -0.36503,1.6907 -0.57636,1.9596 -0.30739,0.096 -0.71084,0.096 h -2.42071 q -0.42266,0 -0.73005,-0.1729 -0.13449,-0.4035 -0.13449,-0.903 0,-4.0153 2.63204,-6.3784 2.51677,-2.267 6.55128,-2.267 3.74633,0 6.12862,1.9981 2.53597,2.1133 2.53597,5.802 0,3.631 -2.80494,6.6473 -0.97981,1.0759 -5.57147,4.5917 -3.34288,2.5936 -4.11136,4.6685 h 8.95277 l 0.1537,-1.7291 q 0.21133,-0.9222 1.13351,-0.9222 h 1.92119 q 1.11429,0 0.97981,1.0951 z"/>
      </g>
    </g>
  </g>
</svg>